<svg xmlns="http://www.w3.org/2000/svg" width="258" height="132" viewBox="0 0 258 132">
  <path d="M 220 3 L 219 4 L 217 4 L 215 6 L 214 6 L 211 9 L 210 9 L 204 15 L 203 15 L 199 19 L 198 19 L 192 25 L 191 25 L 187 29 L 186 29 L 179 36 L 178 36 L 174 40 L 173 39 L 173 28 L 172 27 L 172 16 L 171 15 L 171 13 L 169 11 L 169 10 L 168 9 L 167 9 L 166 8 L 165 8 L 164 7 L 162 7 L 161 6 L 157 6 L 156 7 L 154 7 L 153 8 L 152 8 L 148 12 L 148 13 L 147 14 L 147 16 L 146 17 L 146 33 L 147 34 L 147 45 L 146 46 L 145 46 L 144 47 L 141 47 L 139 49 L 138 49 L 129 58 L 129 59 L 128 60 L 127 60 L 124 63 L 123 63 L 122 64 L 118 64 L 117 63 L 116 63 L 115 62 L 113 62 L 112 61 L 111 61 L 110 60 L 109 60 L 107 58 L 105 58 L 103 56 L 102 56 L 100 54 L 99 54 L 98 53 L 97 53 L 94 50 L 93 50 L 91 48 L 90 48 L 89 47 L 88 47 L 86 45 L 85 45 L 84 44 L 83 44 L 81 42 L 80 42 L 79 41 L 78 41 L 77 40 L 76 40 L 75 39 L 73 39 L 72 38 L 71 38 L 70 37 L 68 37 L 67 36 L 64 36 L 63 35 L 59 35 L 58 34 L 46 34 L 45 35 L 41 35 L 40 36 L 38 36 L 37 37 L 35 37 L 34 38 L 32 38 L 30 40 L 29 40 L 28 41 L 27 41 L 25 43 L 24 43 L 22 45 L 21 45 L 12 54 L 12 55 L 8 59 L 8 60 L 6 62 L 6 63 L 5 64 L 5 65 L 4 66 L 4 68 L 3 69 L 3 74 L 4 75 L 4 77 L 5 78 L 5 80 L 6 81 L 6 82 L 10 86 L 11 86 L 12 87 L 14 87 L 15 88 L 20 88 L 21 87 L 23 87 L 25 85 L 26 85 L 27 84 L 27 83 L 29 81 L 29 80 L 30 79 L 30 74 L 39 65 L 40 65 L 42 63 L 43 63 L 44 62 L 46 62 L 47 61 L 54 61 L 55 62 L 58 62 L 59 63 L 61 63 L 62 64 L 64 64 L 65 65 L 66 65 L 68 67 L 69 67 L 71 69 L 72 69 L 74 71 L 75 71 L 77 73 L 78 73 L 80 75 L 81 75 L 82 76 L 83 76 L 85 78 L 86 78 L 89 81 L 90 81 L 91 82 L 92 82 L 93 83 L 94 83 L 96 85 L 97 85 L 98 86 L 99 86 L 100 87 L 101 87 L 102 88 L 104 88 L 105 89 L 106 89 L 107 90 L 108 90 L 109 91 L 112 91 L 113 92 L 118 92 L 119 93 L 122 93 L 123 92 L 128 92 L 129 91 L 131 91 L 132 90 L 134 90 L 135 89 L 136 89 L 137 88 L 138 88 L 139 87 L 140 87 L 142 85 L 143 85 L 145 83 L 146 83 L 150 79 L 151 80 L 151 82 L 152 83 L 152 89 L 153 90 L 153 117 L 154 118 L 154 120 L 156 122 L 156 123 L 159 126 L 160 126 L 161 127 L 163 127 L 164 128 L 170 128 L 171 127 L 173 127 L 175 125 L 176 125 L 178 123 L 178 122 L 180 120 L 180 118 L 181 117 L 181 104 L 182 103 L 183 104 L 184 104 L 186 106 L 187 106 L 189 108 L 190 108 L 191 109 L 192 109 L 193 110 L 194 110 L 196 112 L 197 112 L 199 114 L 200 114 L 201 115 L 202 115 L 203 116 L 204 116 L 206 118 L 208 118 L 210 120 L 211 120 L 213 122 L 214 122 L 215 123 L 216 123 L 217 124 L 218 124 L 219 125 L 221 125 L 222 126 L 231 126 L 232 125 L 233 125 L 235 123 L 236 123 L 238 121 L 238 120 L 239 119 L 239 117 L 240 116 L 240 110 L 239 109 L 239 107 L 238 106 L 238 105 L 234 101 L 233 101 L 232 100 L 230 100 L 229 99 L 228 99 L 226 97 L 225 97 L 224 96 L 223 96 L 222 95 L 221 95 L 220 94 L 219 94 L 218 93 L 217 93 L 215 91 L 214 91 L 213 90 L 212 90 L 210 88 L 209 88 L 208 87 L 207 87 L 206 86 L 205 86 L 204 85 L 203 85 L 201 83 L 200 83 L 198 81 L 197 81 L 195 79 L 196 78 L 197 78 L 198 77 L 208 77 L 209 76 L 217 76 L 218 75 L 225 75 L 226 74 L 232 74 L 233 73 L 236 73 L 237 74 L 243 74 L 244 73 L 246 73 L 248 71 L 249 71 L 251 69 L 251 68 L 253 66 L 253 63 L 254 62 L 254 58 L 253 57 L 253 55 L 252 54 L 252 53 L 248 49 L 247 49 L 246 48 L 245 48 L 244 47 L 241 47 L 240 46 L 230 46 L 229 47 L 225 47 L 224 48 L 217 48 L 216 49 L 209 49 L 208 50 L 206 50 L 205 49 L 209 45 L 210 45 L 214 41 L 215 41 L 218 38 L 219 38 L 219 37 L 220 36 L 221 36 L 224 33 L 225 33 L 229 29 L 230 29 L 235 24 L 235 23 L 236 22 L 236 20 L 237 19 L 237 13 L 236 12 L 236 10 L 235 9 L 235 8 L 233 6 L 232 6 L 230 4 L 228 4 L 227 3 Z" fill="black" fill-rule="evenodd"/>
</svg>