<svg xmlns="http://www.w3.org/2000/svg" width="288" height="269" viewBox="0 0 288 269">
  <path d="M 18 142 L 17 143 L 15 143 L 14 144 L 13 144 L 10 147 L 10 148 L 9 149 L 9 150 L 8 151 L 8 155 L 7 156 L 7 166 L 6 167 L 6 173 L 5 174 L 5 183 L 4 184 L 4 203 L 3 204 L 3 213 L 4 214 L 4 223 L 5 224 L 5 227 L 6 228 L 6 229 L 7 230 L 7 232 L 8 233 L 8 234 L 9 235 L 9 236 L 11 238 L 11 239 L 14 242 L 14 243 L 18 247 L 19 247 L 24 252 L 25 252 L 27 254 L 28 254 L 30 256 L 31 256 L 32 257 L 33 257 L 34 258 L 35 258 L 36 259 L 37 259 L 38 260 L 40 260 L 41 261 L 43 261 L 44 262 L 47 262 L 48 263 L 51 263 L 52 264 L 55 264 L 56 265 L 70 265 L 71 264 L 74 264 L 75 263 L 78 263 L 79 262 L 81 262 L 82 261 L 83 261 L 84 260 L 85 260 L 86 259 L 87 259 L 88 258 L 89 258 L 90 257 L 91 257 L 92 256 L 93 256 L 94 255 L 95 255 L 96 254 L 97 254 L 101 250 L 102 250 L 109 243 L 109 242 L 111 240 L 111 239 L 113 237 L 113 236 L 115 234 L 115 233 L 116 232 L 116 231 L 117 230 L 117 229 L 118 228 L 118 227 L 119 226 L 119 224 L 120 223 L 120 222 L 121 221 L 121 219 L 122 218 L 122 216 L 123 215 L 123 212 L 124 211 L 124 209 L 125 208 L 125 206 L 126 205 L 126 204 L 127 203 L 127 201 L 128 200 L 128 197 L 129 196 L 129 193 L 130 192 L 129 191 L 129 187 L 128 186 L 128 185 L 127 184 L 127 183 L 123 179 L 122 179 L 121 178 L 119 178 L 118 177 L 111 177 L 110 178 L 109 178 L 108 179 L 107 179 L 103 183 L 103 184 L 101 186 L 101 187 L 100 188 L 100 191 L 99 192 L 99 194 L 98 195 L 98 196 L 97 197 L 97 200 L 96 201 L 96 203 L 95 204 L 95 206 L 94 207 L 94 209 L 93 210 L 93 212 L 92 213 L 92 214 L 91 215 L 91 216 L 90 217 L 90 218 L 89 219 L 89 220 L 88 221 L 88 222 L 84 226 L 84 227 L 83 228 L 82 228 L 80 230 L 79 230 L 77 232 L 76 232 L 75 233 L 74 233 L 73 234 L 72 234 L 71 235 L 69 235 L 68 236 L 55 236 L 54 235 L 51 235 L 50 234 L 49 234 L 48 233 L 47 233 L 46 232 L 45 232 L 44 231 L 43 231 L 41 229 L 40 229 L 32 221 L 32 219 L 31 218 L 31 180 L 32 179 L 32 171 L 33 170 L 33 160 L 34 159 L 34 155 L 33 154 L 33 150 L 32 149 L 32 148 L 28 144 L 27 144 L 26 143 L 24 143 L 23 142 Z M 125 57 L 124 58 L 121 58 L 120 59 L 118 59 L 117 60 L 114 60 L 113 61 L 112 61 L 111 62 L 110 62 L 109 63 L 108 63 L 107 64 L 106 64 L 103 67 L 102 67 L 101 68 L 100 68 L 96 72 L 95 72 L 89 78 L 89 79 L 84 84 L 84 85 L 82 87 L 82 88 L 80 90 L 80 91 L 79 92 L 79 93 L 78 94 L 78 95 L 77 96 L 77 97 L 76 98 L 76 99 L 75 100 L 75 102 L 74 103 L 74 105 L 73 106 L 73 107 L 72 108 L 72 111 L 71 112 L 71 114 L 70 115 L 70 119 L 69 120 L 69 122 L 68 123 L 68 127 L 67 128 L 67 131 L 66 132 L 66 137 L 65 138 L 65 141 L 64 142 L 64 148 L 63 149 L 63 154 L 62 155 L 62 159 L 61 160 L 61 165 L 60 166 L 60 173 L 59 174 L 59 183 L 60 184 L 60 187 L 61 188 L 61 190 L 63 192 L 63 193 L 64 194 L 65 194 L 67 196 L 69 196 L 70 197 L 76 197 L 77 196 L 79 196 L 84 191 L 84 190 L 85 189 L 85 187 L 86 186 L 86 181 L 85 180 L 85 177 L 86 176 L 86 171 L 87 170 L 87 165 L 88 164 L 88 160 L 89 159 L 89 154 L 90 153 L 90 150 L 91 149 L 91 145 L 92 144 L 92 139 L 93 138 L 93 135 L 94 134 L 94 131 L 95 130 L 95 127 L 96 126 L 96 124 L 97 123 L 97 121 L 98 120 L 98 118 L 99 117 L 99 115 L 100 114 L 100 112 L 101 111 L 101 110 L 102 109 L 102 108 L 103 107 L 103 106 L 106 103 L 106 102 L 110 98 L 110 97 L 112 95 L 113 95 L 113 94 L 114 93 L 115 93 L 117 91 L 118 91 L 120 89 L 121 89 L 123 87 L 125 87 L 126 86 L 133 86 L 138 91 L 138 92 L 140 94 L 140 95 L 141 96 L 141 97 L 142 98 L 142 99 L 143 100 L 143 101 L 144 102 L 144 103 L 146 105 L 146 106 L 148 108 L 148 109 L 150 111 L 150 112 L 154 116 L 154 117 L 161 124 L 162 124 L 166 128 L 167 128 L 168 129 L 169 129 L 170 130 L 171 130 L 173 132 L 174 132 L 175 133 L 176 133 L 177 134 L 178 134 L 179 135 L 180 135 L 181 136 L 182 136 L 183 137 L 185 137 L 186 138 L 188 138 L 189 139 L 195 139 L 196 140 L 203 140 L 204 139 L 211 139 L 212 138 L 216 138 L 217 137 L 219 137 L 220 136 L 221 136 L 225 132 L 225 131 L 226 130 L 226 129 L 227 128 L 227 120 L 226 119 L 226 117 L 225 116 L 225 115 L 221 111 L 220 111 L 219 110 L 217 110 L 216 109 L 209 109 L 208 110 L 195 110 L 194 109 L 192 109 L 191 108 L 190 108 L 188 106 L 187 106 L 186 105 L 185 105 L 182 102 L 181 102 L 175 96 L 175 95 L 172 92 L 172 91 L 171 90 L 171 89 L 169 87 L 169 86 L 168 85 L 168 84 L 166 82 L 166 81 L 165 80 L 165 79 L 163 77 L 163 76 L 161 74 L 161 73 L 157 69 L 157 68 L 156 67 L 155 67 L 150 62 L 149 62 L 148 61 L 147 61 L 146 60 L 145 60 L 144 59 L 142 59 L 141 58 L 138 58 L 137 57 Z M 168 13 L 167 14 L 165 14 L 164 15 L 163 15 L 158 20 L 158 21 L 157 22 L 157 24 L 156 25 L 156 31 L 157 32 L 157 33 L 158 34 L 158 36 L 159 37 L 159 39 L 161 41 L 161 43 L 162 44 L 162 45 L 163 46 L 163 47 L 165 49 L 165 50 L 167 52 L 167 53 L 175 61 L 176 61 L 178 63 L 179 63 L 181 65 L 182 65 L 184 67 L 185 67 L 186 68 L 187 68 L 188 69 L 189 69 L 190 70 L 191 70 L 192 71 L 194 71 L 195 72 L 196 72 L 197 73 L 198 73 L 199 74 L 201 74 L 202 75 L 203 75 L 204 76 L 206 76 L 207 77 L 208 77 L 209 78 L 211 78 L 212 79 L 213 79 L 214 80 L 215 80 L 216 81 L 218 81 L 219 82 L 220 82 L 221 83 L 222 83 L 223 84 L 224 84 L 225 85 L 227 85 L 228 86 L 229 86 L 230 87 L 231 87 L 238 94 L 238 95 L 243 100 L 243 101 L 247 105 L 247 106 L 250 109 L 250 110 L 252 112 L 252 113 L 253 114 L 253 115 L 254 116 L 254 117 L 255 118 L 255 130 L 254 131 L 254 133 L 253 134 L 253 136 L 252 137 L 252 138 L 250 140 L 250 141 L 247 144 L 247 145 L 236 156 L 235 156 L 231 160 L 230 160 L 228 162 L 226 162 L 225 163 L 224 163 L 223 164 L 196 164 L 195 163 L 190 163 L 189 162 L 187 162 L 186 161 L 184 161 L 183 160 L 181 160 L 180 159 L 178 159 L 177 158 L 175 158 L 174 157 L 173 157 L 172 156 L 170 156 L 169 155 L 168 155 L 167 154 L 165 154 L 164 153 L 163 153 L 162 152 L 160 152 L 157 149 L 156 149 L 154 147 L 153 147 L 152 146 L 150 146 L 149 145 L 144 145 L 143 146 L 141 146 L 140 147 L 139 147 L 136 150 L 136 151 L 135 152 L 135 153 L 134 154 L 134 162 L 135 163 L 135 165 L 142 172 L 143 172 L 144 173 L 145 173 L 146 174 L 147 174 L 148 175 L 149 175 L 150 176 L 151 176 L 152 177 L 153 177 L 154 178 L 156 178 L 157 179 L 158 179 L 159 180 L 160 180 L 161 181 L 163 181 L 164 182 L 166 182 L 167 183 L 168 183 L 169 184 L 171 184 L 172 185 L 173 185 L 174 186 L 177 186 L 178 187 L 180 187 L 181 188 L 182 188 L 183 189 L 186 189 L 187 190 L 191 190 L 192 191 L 228 191 L 229 190 L 232 190 L 233 189 L 235 189 L 236 188 L 238 188 L 239 187 L 240 187 L 241 186 L 242 186 L 243 185 L 244 185 L 246 183 L 247 183 L 247 182 L 248 181 L 249 181 L 250 180 L 251 180 L 255 176 L 256 176 L 262 170 L 263 170 L 263 169 L 264 168 L 265 168 L 265 167 L 270 162 L 270 161 L 274 157 L 274 156 L 275 155 L 275 154 L 277 152 L 277 151 L 278 150 L 278 149 L 279 148 L 279 147 L 280 146 L 280 144 L 281 143 L 281 141 L 282 140 L 282 138 L 283 137 L 283 132 L 284 131 L 284 115 L 283 114 L 283 111 L 282 110 L 282 107 L 281 106 L 281 105 L 280 104 L 280 102 L 279 101 L 279 100 L 277 98 L 277 97 L 276 96 L 276 95 L 275 94 L 275 93 L 272 90 L 272 89 L 268 85 L 268 84 L 265 81 L 265 80 L 259 74 L 259 73 L 248 62 L 247 62 L 246 61 L 245 61 L 244 60 L 243 60 L 242 59 L 240 59 L 239 58 L 237 58 L 236 57 L 235 57 L 234 56 L 232 56 L 230 54 L 228 54 L 227 53 L 226 53 L 225 52 L 224 52 L 223 51 L 221 51 L 220 50 L 219 50 L 218 49 L 216 49 L 215 48 L 213 48 L 212 47 L 211 47 L 210 46 L 208 46 L 206 44 L 204 44 L 203 43 L 202 43 L 201 42 L 200 42 L 199 41 L 198 41 L 196 39 L 195 39 L 190 34 L 190 33 L 188 31 L 188 30 L 187 29 L 187 28 L 186 27 L 186 25 L 185 24 L 185 23 L 184 22 L 184 21 L 183 20 L 183 19 L 179 15 L 178 15 L 177 14 L 175 14 L 174 13 Z M 102 3 L 101 4 L 98 4 L 97 5 L 96 5 L 95 6 L 93 6 L 92 7 L 90 7 L 89 8 L 88 8 L 87 9 L 86 9 L 85 10 L 84 10 L 83 11 L 82 11 L 81 12 L 80 12 L 79 13 L 78 13 L 77 14 L 75 14 L 73 16 L 72 16 L 71 17 L 70 17 L 69 18 L 68 18 L 65 21 L 64 21 L 59 26 L 58 26 L 48 36 L 48 37 L 47 38 L 46 38 L 46 39 L 44 41 L 44 42 L 42 44 L 42 45 L 40 47 L 40 48 L 39 49 L 39 50 L 37 52 L 37 53 L 36 54 L 36 56 L 35 57 L 35 58 L 33 60 L 33 62 L 32 63 L 32 64 L 31 65 L 31 66 L 30 67 L 30 69 L 29 70 L 29 72 L 28 73 L 28 75 L 27 76 L 27 78 L 26 79 L 26 82 L 25 83 L 25 86 L 24 87 L 24 89 L 23 90 L 23 93 L 22 94 L 22 101 L 23 102 L 23 104 L 24 105 L 24 106 L 27 109 L 28 109 L 30 111 L 33 111 L 34 112 L 37 112 L 38 111 L 41 111 L 42 110 L 43 110 L 48 105 L 48 104 L 49 103 L 49 102 L 50 101 L 50 98 L 51 97 L 51 94 L 52 93 L 52 90 L 53 89 L 53 86 L 54 85 L 54 83 L 55 82 L 55 80 L 56 79 L 56 78 L 57 77 L 57 75 L 58 74 L 58 73 L 59 72 L 59 70 L 60 69 L 60 68 L 61 67 L 61 66 L 62 65 L 62 64 L 63 63 L 63 62 L 65 60 L 65 59 L 66 58 L 66 57 L 81 42 L 82 42 L 84 40 L 85 40 L 87 38 L 89 38 L 91 36 L 92 36 L 93 35 L 94 35 L 95 34 L 97 34 L 99 32 L 101 32 L 102 31 L 103 31 L 104 30 L 106 30 L 107 29 L 114 29 L 115 28 L 117 28 L 119 26 L 120 26 L 121 25 L 121 24 L 123 22 L 123 21 L 124 20 L 124 12 L 123 11 L 123 10 L 122 9 L 122 8 L 119 5 L 118 5 L 117 4 L 116 4 L 115 3 Z" fill="black" fill-rule="evenodd"/>
</svg>