<svg xmlns="http://www.w3.org/2000/svg" width="260" height="236" viewBox="0 0 260 236">
  <path d="M 41 3 L 40 4 L 35 4 L 34 5 L 32 5 L 31 6 L 28 6 L 27 7 L 26 7 L 25 8 L 24 8 L 23 9 L 22 9 L 21 10 L 20 10 L 19 11 L 19 12 L 11 20 L 11 21 L 9 23 L 9 24 L 8 25 L 8 26 L 7 27 L 7 29 L 6 30 L 6 31 L 5 32 L 5 34 L 4 35 L 4 38 L 3 39 L 3 53 L 4 54 L 4 57 L 5 58 L 5 60 L 6 61 L 6 63 L 7 64 L 7 65 L 8 66 L 8 67 L 12 71 L 12 72 L 14 74 L 15 74 L 19 78 L 20 78 L 21 79 L 22 79 L 23 80 L 24 80 L 25 81 L 26 81 L 27 82 L 29 82 L 30 83 L 32 83 L 33 84 L 35 84 L 36 85 L 36 91 L 37 92 L 37 98 L 38 99 L 38 102 L 39 103 L 39 107 L 40 108 L 40 111 L 41 112 L 41 115 L 42 116 L 42 118 L 43 119 L 43 121 L 44 122 L 44 125 L 45 126 L 45 128 L 46 129 L 46 131 L 47 132 L 47 134 L 48 135 L 48 137 L 49 138 L 49 140 L 50 141 L 50 144 L 51 145 L 51 147 L 52 148 L 52 149 L 53 150 L 53 151 L 55 153 L 55 154 L 56 154 L 59 157 L 59 159 L 58 160 L 58 162 L 57 163 L 57 164 L 55 166 L 55 167 L 54 168 L 54 169 L 52 171 L 52 172 L 51 173 L 51 175 L 50 176 L 50 178 L 49 179 L 49 181 L 48 182 L 48 186 L 47 187 L 47 201 L 48 202 L 48 206 L 49 207 L 49 209 L 50 210 L 50 211 L 51 212 L 51 213 L 53 215 L 53 216 L 56 219 L 56 220 L 57 220 L 61 224 L 62 224 L 64 226 L 65 226 L 66 227 L 68 227 L 69 228 L 71 228 L 72 229 L 74 229 L 75 230 L 77 230 L 78 231 L 82 231 L 83 232 L 102 232 L 103 231 L 107 231 L 108 230 L 111 230 L 112 229 L 114 229 L 115 228 L 116 228 L 117 227 L 118 227 L 119 226 L 120 226 L 121 225 L 122 225 L 125 222 L 126 222 L 128 220 L 129 220 L 131 218 L 132 218 L 141 209 L 141 208 L 143 206 L 143 205 L 145 203 L 145 202 L 146 201 L 146 200 L 147 199 L 147 197 L 148 196 L 148 193 L 149 192 L 149 177 L 148 176 L 148 173 L 147 172 L 147 170 L 146 169 L 146 168 L 145 167 L 145 166 L 144 165 L 144 164 L 143 163 L 143 162 L 153 152 L 154 152 L 163 143 L 164 143 L 171 136 L 172 136 L 175 133 L 176 133 L 179 130 L 180 130 L 181 129 L 182 129 L 184 127 L 185 127 L 188 124 L 189 124 L 192 121 L 198 121 L 199 122 L 210 122 L 211 121 L 216 121 L 217 120 L 220 120 L 221 119 L 223 119 L 224 118 L 225 118 L 226 117 L 228 117 L 229 116 L 230 116 L 231 115 L 232 115 L 234 113 L 235 113 L 237 111 L 238 111 L 241 108 L 242 108 L 245 105 L 245 104 L 249 100 L 249 99 L 251 97 L 251 96 L 252 95 L 252 94 L 253 93 L 253 92 L 254 91 L 254 89 L 255 88 L 255 85 L 256 84 L 256 71 L 255 70 L 255 67 L 254 66 L 254 64 L 253 63 L 253 61 L 252 60 L 252 59 L 250 57 L 250 56 L 249 55 L 249 54 L 248 53 L 248 52 L 246 50 L 246 49 L 236 39 L 235 39 L 232 36 L 231 36 L 230 35 L 229 35 L 228 34 L 227 34 L 226 33 L 225 33 L 224 32 L 223 32 L 222 31 L 220 31 L 219 30 L 215 30 L 214 29 L 199 29 L 198 30 L 195 30 L 194 31 L 191 31 L 190 32 L 188 32 L 187 33 L 184 33 L 183 34 L 182 34 L 181 35 L 180 35 L 179 36 L 178 36 L 175 39 L 175 40 L 174 41 L 174 42 L 173 43 L 173 45 L 172 46 L 172 47 L 171 48 L 171 49 L 169 51 L 169 52 L 168 53 L 168 54 L 167 55 L 167 56 L 166 57 L 166 58 L 165 59 L 165 61 L 164 62 L 164 63 L 163 64 L 163 67 L 162 68 L 162 70 L 161 71 L 161 74 L 160 75 L 160 81 L 159 82 L 159 86 L 160 87 L 160 93 L 161 94 L 161 96 L 162 97 L 162 99 L 163 100 L 163 101 L 164 102 L 164 103 L 166 105 L 166 106 L 165 107 L 164 107 L 159 112 L 158 112 L 156 114 L 155 114 L 149 120 L 148 120 L 126 142 L 125 142 L 124 143 L 121 143 L 120 142 L 118 142 L 116 140 L 114 140 L 113 139 L 111 139 L 110 138 L 107 138 L 106 137 L 94 137 L 93 138 L 89 138 L 88 139 L 85 139 L 84 140 L 83 140 L 82 141 L 79 141 L 78 140 L 78 139 L 77 138 L 77 136 L 76 135 L 76 134 L 75 133 L 75 130 L 74 129 L 74 128 L 73 127 L 73 125 L 72 124 L 72 122 L 71 121 L 71 119 L 70 118 L 70 116 L 69 115 L 69 114 L 68 113 L 68 111 L 67 110 L 67 107 L 66 106 L 66 103 L 65 102 L 65 100 L 64 99 L 64 95 L 63 94 L 63 89 L 62 88 L 62 85 L 64 83 L 66 83 L 67 82 L 69 82 L 70 81 L 71 81 L 72 80 L 73 80 L 75 78 L 76 78 L 80 74 L 81 74 L 81 73 L 85 69 L 85 68 L 87 66 L 87 65 L 88 64 L 88 62 L 89 61 L 89 59 L 90 58 L 90 51 L 91 50 L 91 48 L 90 47 L 90 41 L 89 40 L 89 37 L 88 36 L 88 34 L 87 33 L 87 32 L 86 31 L 86 30 L 85 29 L 85 28 L 84 27 L 84 26 L 83 25 L 83 24 L 81 22 L 81 21 L 72 12 L 71 12 L 68 9 L 67 9 L 66 8 L 65 8 L 64 7 L 63 7 L 62 6 L 60 6 L 59 5 L 57 5 L 56 4 L 53 4 L 52 3 Z M 97 167 L 98 166 L 101 166 L 102 167 L 104 167 L 105 168 L 106 168 L 107 169 L 108 169 L 109 170 L 110 170 L 113 173 L 114 173 L 118 177 L 118 178 L 119 179 L 119 180 L 120 181 L 120 183 L 121 184 L 121 185 L 120 186 L 120 189 L 117 192 L 117 193 L 116 194 L 115 194 L 115 195 L 114 196 L 113 196 L 110 199 L 109 199 L 106 202 L 104 202 L 103 203 L 101 203 L 100 204 L 94 204 L 93 205 L 90 205 L 89 204 L 83 204 L 82 203 L 80 203 L 79 202 L 78 202 L 74 198 L 74 188 L 75 187 L 75 185 L 76 184 L 76 183 L 77 182 L 77 181 L 78 180 L 81 180 L 82 179 L 83 179 L 84 178 L 85 178 L 88 175 L 88 174 L 89 173 L 89 171 L 92 168 L 94 168 L 95 167 Z M 202 59 L 203 58 L 210 58 L 211 59 L 212 59 L 213 60 L 214 60 L 215 61 L 216 61 L 220 65 L 221 65 L 222 66 L 222 67 L 225 70 L 225 71 L 226 72 L 226 73 L 227 74 L 227 76 L 228 77 L 228 78 L 227 79 L 227 81 L 226 82 L 226 83 L 219 90 L 218 90 L 217 91 L 216 91 L 215 92 L 214 92 L 213 93 L 211 93 L 210 94 L 198 94 L 197 93 L 194 93 L 193 92 L 191 92 L 187 88 L 187 87 L 186 86 L 186 81 L 187 80 L 187 77 L 188 76 L 188 74 L 189 73 L 189 71 L 190 70 L 190 68 L 191 67 L 191 66 L 193 64 L 193 63 L 194 62 L 195 62 L 197 60 L 199 60 L 200 59 Z M 45 33 L 46 32 L 47 32 L 48 33 L 51 33 L 52 34 L 53 34 L 60 41 L 60 43 L 61 44 L 61 46 L 62 47 L 62 52 L 58 56 L 57 56 L 56 57 L 54 57 L 53 58 L 41 58 L 40 57 L 38 57 L 37 56 L 35 56 L 30 51 L 30 49 L 29 48 L 29 45 L 30 44 L 30 41 L 31 40 L 31 38 L 33 36 L 34 36 L 35 35 L 37 35 L 38 34 L 40 34 L 41 33 Z" fill="black" fill-rule="evenodd"/>
</svg>