<svg xmlns="http://www.w3.org/2000/svg" width="241" height="216" viewBox="0 0 241 216">
  <path d="M 23 135 L 22 136 L 19 136 L 18 137 L 17 137 L 16 138 L 15 138 L 13 140 L 12 140 L 8 144 L 8 145 L 6 147 L 6 148 L 5 149 L 5 150 L 4 151 L 4 153 L 3 154 L 3 167 L 4 168 L 4 170 L 5 171 L 5 173 L 6 174 L 6 175 L 9 178 L 9 179 L 12 182 L 13 182 L 15 184 L 16 184 L 17 185 L 18 185 L 19 186 L 20 186 L 21 187 L 23 187 L 24 188 L 34 188 L 35 187 L 38 187 L 39 186 L 41 186 L 42 185 L 43 185 L 45 183 L 46 183 L 50 179 L 50 178 L 54 174 L 54 173 L 55 172 L 55 171 L 56 170 L 56 169 L 57 168 L 57 166 L 58 165 L 58 155 L 57 154 L 57 152 L 56 151 L 56 150 L 55 149 L 55 148 L 53 146 L 53 145 L 49 141 L 48 141 L 46 139 L 45 139 L 44 138 L 43 138 L 42 137 L 40 137 L 39 136 L 36 136 L 35 135 Z M 192 16 L 191 17 L 185 17 L 184 18 L 176 18 L 175 19 L 169 19 L 168 20 L 163 20 L 162 21 L 158 21 L 157 22 L 154 22 L 153 23 L 149 23 L 148 24 L 147 24 L 142 29 L 142 30 L 141 31 L 141 34 L 140 35 L 140 36 L 141 37 L 141 41 L 144 44 L 144 45 L 145 46 L 146 46 L 147 47 L 148 47 L 149 48 L 152 48 L 153 49 L 155 49 L 156 48 L 160 48 L 161 47 L 165 47 L 166 46 L 172 46 L 173 45 L 182 45 L 183 44 L 190 44 L 191 43 L 199 43 L 201 45 L 201 46 L 202 47 L 202 49 L 203 50 L 203 52 L 204 53 L 204 56 L 205 57 L 205 60 L 206 61 L 206 66 L 207 67 L 207 71 L 208 72 L 208 93 L 207 94 L 207 99 L 206 100 L 206 103 L 207 104 L 207 106 L 208 107 L 208 108 L 209 109 L 209 110 L 212 113 L 213 113 L 214 114 L 215 114 L 216 115 L 225 115 L 226 114 L 227 114 L 228 113 L 229 113 L 232 110 L 232 109 L 233 108 L 233 107 L 234 106 L 234 105 L 235 104 L 235 98 L 236 97 L 236 91 L 237 90 L 237 78 L 236 77 L 236 70 L 235 69 L 235 64 L 234 63 L 234 60 L 233 59 L 233 56 L 232 55 L 232 52 L 231 51 L 231 49 L 230 48 L 230 45 L 229 44 L 229 42 L 228 41 L 228 38 L 227 37 L 227 35 L 226 34 L 226 33 L 225 32 L 225 31 L 224 30 L 224 29 L 222 27 L 222 26 L 217 21 L 216 21 L 215 20 L 214 20 L 213 19 L 212 19 L 211 18 L 208 18 L 207 17 L 203 17 L 202 16 Z M 66 3 L 65 4 L 61 4 L 60 5 L 58 5 L 57 6 L 55 6 L 54 7 L 52 7 L 51 8 L 50 8 L 49 9 L 48 9 L 46 11 L 45 11 L 42 14 L 41 14 L 30 25 L 30 26 L 28 28 L 28 29 L 25 32 L 25 33 L 24 34 L 24 35 L 23 36 L 23 37 L 22 38 L 22 39 L 21 40 L 21 41 L 20 42 L 20 44 L 19 45 L 19 47 L 18 48 L 18 50 L 17 51 L 17 54 L 16 55 L 16 60 L 15 61 L 15 67 L 14 68 L 14 76 L 13 77 L 13 106 L 14 107 L 14 111 L 15 112 L 15 116 L 16 117 L 16 119 L 20 123 L 21 123 L 22 124 L 23 124 L 24 125 L 31 125 L 32 124 L 33 124 L 34 123 L 35 123 L 39 119 L 39 118 L 40 117 L 40 115 L 41 114 L 41 111 L 40 110 L 40 104 L 39 103 L 39 87 L 40 86 L 40 76 L 41 75 L 41 69 L 42 68 L 42 63 L 43 62 L 43 58 L 44 57 L 44 56 L 45 55 L 45 53 L 46 52 L 46 51 L 48 49 L 48 48 L 49 47 L 49 46 L 52 43 L 52 42 L 57 37 L 58 37 L 61 34 L 62 34 L 63 33 L 64 33 L 65 32 L 68 32 L 69 31 L 73 31 L 74 32 L 75 32 L 80 37 L 80 38 L 82 40 L 82 42 L 83 43 L 83 45 L 84 46 L 84 48 L 85 49 L 85 52 L 86 53 L 86 59 L 87 60 L 87 71 L 88 72 L 88 87 L 89 88 L 89 164 L 90 165 L 90 170 L 91 171 L 91 175 L 92 176 L 92 178 L 93 179 L 93 182 L 94 183 L 94 186 L 96 188 L 96 190 L 97 191 L 97 192 L 98 193 L 98 194 L 100 196 L 100 197 L 103 200 L 103 201 L 107 205 L 108 205 L 110 207 L 111 207 L 113 209 L 115 209 L 116 210 L 117 210 L 118 211 L 121 211 L 122 212 L 140 212 L 141 211 L 144 211 L 145 210 L 147 210 L 148 209 L 149 209 L 151 207 L 152 207 L 154 205 L 155 205 L 160 200 L 160 199 L 163 196 L 163 195 L 165 193 L 165 192 L 166 191 L 166 190 L 168 188 L 168 187 L 169 186 L 169 184 L 170 183 L 170 182 L 171 181 L 171 179 L 172 178 L 172 176 L 173 175 L 173 172 L 174 171 L 174 168 L 175 167 L 175 163 L 176 162 L 176 157 L 177 156 L 177 149 L 178 148 L 178 136 L 179 135 L 179 102 L 178 101 L 178 96 L 177 95 L 177 94 L 176 93 L 176 91 L 175 90 L 175 88 L 174 87 L 174 86 L 173 85 L 173 84 L 169 80 L 168 80 L 167 79 L 165 79 L 164 78 L 157 78 L 156 79 L 154 79 L 153 80 L 152 80 L 148 84 L 148 85 L 147 86 L 147 88 L 146 89 L 146 96 L 147 97 L 147 99 L 148 100 L 148 101 L 149 102 L 149 143 L 148 144 L 148 151 L 147 152 L 147 157 L 146 158 L 146 162 L 145 163 L 145 165 L 144 166 L 144 169 L 143 170 L 143 172 L 141 174 L 141 176 L 139 178 L 139 179 L 136 182 L 135 182 L 134 183 L 127 183 L 125 181 L 125 180 L 123 178 L 123 177 L 122 176 L 122 174 L 121 173 L 121 171 L 120 170 L 120 168 L 119 167 L 119 160 L 118 159 L 118 131 L 119 130 L 119 94 L 118 93 L 118 80 L 117 79 L 117 64 L 116 63 L 116 56 L 115 55 L 115 49 L 114 48 L 114 45 L 113 44 L 113 41 L 112 40 L 112 38 L 111 37 L 111 36 L 110 35 L 110 32 L 109 31 L 109 30 L 108 29 L 108 28 L 107 27 L 107 26 L 105 24 L 105 23 L 104 22 L 104 21 L 102 19 L 102 18 L 95 11 L 94 11 L 92 9 L 91 9 L 89 7 L 88 7 L 87 6 L 85 6 L 84 5 L 82 5 L 81 4 L 79 4 L 78 3 Z" fill="black" fill-rule="evenodd"/>
</svg>