<svg xmlns="http://www.w3.org/2000/svg" width="170" height="268" viewBox="0 0 170 268">
  <path d="M 144 229 L 143 230 L 133 230 L 132 231 L 124 231 L 123 232 L 118 232 L 117 233 L 110 233 L 109 234 L 94 234 L 93 235 L 59 235 L 58 236 L 49 236 L 48 237 L 41 237 L 40 238 L 36 238 L 35 237 L 32 237 L 31 238 L 28 238 L 26 240 L 25 240 L 24 241 L 24 242 L 22 244 L 22 245 L 21 246 L 21 254 L 22 255 L 22 256 L 23 257 L 23 258 L 26 261 L 27 261 L 28 262 L 29 262 L 30 263 L 33 263 L 34 264 L 43 264 L 44 263 L 54 263 L 55 262 L 103 262 L 104 261 L 115 261 L 116 260 L 123 260 L 124 259 L 134 259 L 135 258 L 147 258 L 148 257 L 152 257 L 153 256 L 155 256 L 156 255 L 157 255 L 161 251 L 161 250 L 162 249 L 162 247 L 163 246 L 163 240 L 162 239 L 162 237 L 160 235 L 160 234 L 158 232 L 157 232 L 155 230 L 153 230 L 152 229 Z M 82 171 L 81 172 L 77 172 L 76 173 L 74 173 L 73 174 L 72 174 L 71 175 L 70 175 L 69 176 L 68 176 L 61 183 L 61 184 L 60 185 L 60 186 L 59 187 L 59 188 L 58 189 L 58 191 L 57 192 L 57 194 L 56 195 L 56 205 L 57 206 L 57 208 L 58 209 L 58 210 L 59 211 L 59 212 L 63 216 L 64 216 L 65 217 L 66 217 L 67 218 L 68 218 L 69 219 L 71 219 L 72 220 L 85 220 L 86 219 L 90 219 L 91 218 L 94 218 L 95 217 L 98 217 L 99 216 L 101 216 L 102 215 L 103 215 L 104 214 L 105 214 L 112 207 L 112 206 L 113 205 L 113 204 L 114 203 L 114 200 L 115 199 L 115 192 L 114 191 L 114 189 L 113 188 L 113 187 L 112 186 L 112 185 L 111 184 L 111 183 L 109 181 L 109 180 L 108 180 L 104 176 L 103 176 L 102 175 L 101 175 L 100 174 L 98 174 L 97 173 L 95 173 L 94 172 L 89 172 L 88 171 Z M 129 127 L 128 128 L 118 128 L 117 129 L 108 129 L 107 130 L 97 130 L 96 131 L 81 131 L 80 132 L 70 132 L 69 133 L 58 133 L 57 134 L 44 134 L 43 135 L 21 135 L 20 136 L 19 136 L 18 137 L 17 137 L 13 141 L 13 142 L 12 143 L 12 146 L 11 147 L 11 149 L 12 150 L 12 153 L 13 154 L 13 155 L 17 159 L 18 159 L 19 160 L 21 160 L 22 161 L 54 161 L 55 160 L 67 160 L 68 159 L 83 159 L 84 158 L 105 158 L 106 157 L 116 157 L 117 156 L 149 156 L 150 155 L 156 155 L 157 154 L 158 154 L 159 153 L 160 153 L 161 152 L 162 152 L 163 151 L 163 150 L 165 148 L 165 147 L 166 146 L 166 137 L 165 136 L 165 135 L 164 134 L 164 133 L 163 132 L 163 131 L 162 131 L 160 129 L 159 129 L 158 128 L 156 128 L 155 127 Z M 70 62 L 69 63 L 67 63 L 66 64 L 65 64 L 63 66 L 62 66 L 60 68 L 59 68 L 58 69 L 58 70 L 56 72 L 56 73 L 54 75 L 54 76 L 53 77 L 53 79 L 52 80 L 52 92 L 53 93 L 53 95 L 54 96 L 54 97 L 57 100 L 57 101 L 61 105 L 62 105 L 63 106 L 64 106 L 65 107 L 66 107 L 67 108 L 69 108 L 70 109 L 82 109 L 83 108 L 85 108 L 86 107 L 87 107 L 88 106 L 90 106 L 91 105 L 92 105 L 97 100 L 97 99 L 100 96 L 100 94 L 101 93 L 101 88 L 102 87 L 102 86 L 101 85 L 101 81 L 100 80 L 100 79 L 99 78 L 99 76 L 98 75 L 98 74 L 97 73 L 97 72 L 91 66 L 90 66 L 88 64 L 87 64 L 86 63 L 84 63 L 83 62 Z M 68 3 L 67 4 L 59 4 L 58 5 L 54 5 L 53 6 L 51 6 L 50 7 L 48 7 L 47 8 L 45 8 L 44 9 L 43 9 L 42 10 L 41 10 L 40 11 L 38 11 L 37 12 L 36 12 L 35 13 L 34 13 L 33 14 L 31 14 L 30 15 L 29 15 L 28 16 L 27 16 L 24 19 L 23 19 L 21 21 L 20 21 L 13 28 L 13 29 L 11 31 L 11 32 L 10 33 L 10 34 L 9 35 L 9 37 L 8 38 L 8 40 L 7 41 L 7 44 L 6 45 L 6 48 L 5 49 L 5 53 L 4 54 L 4 58 L 3 59 L 3 97 L 4 98 L 4 105 L 5 106 L 5 108 L 6 109 L 6 110 L 8 112 L 8 113 L 11 116 L 12 116 L 13 117 L 14 117 L 15 118 L 18 118 L 19 119 L 20 118 L 24 118 L 25 117 L 26 117 L 27 116 L 28 116 L 28 115 L 31 112 L 31 110 L 32 109 L 32 102 L 31 101 L 31 100 L 30 99 L 30 94 L 29 93 L 29 70 L 30 69 L 30 61 L 31 60 L 31 56 L 32 55 L 32 52 L 33 51 L 33 49 L 34 48 L 34 46 L 37 43 L 38 43 L 40 41 L 41 41 L 42 40 L 43 40 L 44 39 L 45 39 L 46 38 L 47 38 L 48 37 L 50 37 L 51 36 L 52 36 L 53 35 L 55 35 L 56 34 L 58 34 L 59 33 L 62 33 L 63 32 L 83 32 L 84 33 L 92 33 L 93 34 L 94 34 L 95 35 L 96 35 L 98 37 L 99 37 L 102 40 L 103 40 L 106 43 L 107 43 L 109 45 L 110 45 L 113 48 L 113 49 L 114 50 L 114 51 L 117 54 L 117 55 L 118 56 L 118 57 L 119 58 L 119 60 L 120 61 L 120 63 L 121 64 L 121 66 L 122 67 L 122 72 L 123 73 L 123 77 L 124 78 L 124 97 L 125 98 L 125 100 L 126 101 L 126 103 L 128 105 L 128 106 L 130 108 L 131 108 L 132 109 L 133 109 L 134 110 L 136 110 L 137 111 L 142 111 L 143 110 L 145 110 L 146 109 L 147 109 L 152 104 L 152 103 L 153 102 L 153 100 L 154 99 L 154 81 L 153 80 L 153 73 L 152 72 L 152 67 L 151 66 L 151 63 L 150 62 L 150 59 L 149 58 L 149 55 L 148 54 L 148 51 L 147 50 L 147 49 L 146 48 L 146 46 L 145 45 L 145 44 L 143 42 L 143 41 L 142 40 L 142 39 L 141 38 L 141 37 L 139 35 L 139 34 L 137 32 L 137 31 L 135 29 L 135 28 L 130 23 L 129 23 L 127 21 L 126 21 L 123 18 L 122 18 L 121 17 L 120 17 L 117 14 L 116 14 L 114 12 L 113 12 L 111 10 L 110 10 L 109 9 L 108 9 L 107 8 L 106 8 L 105 7 L 103 7 L 102 6 L 100 6 L 99 5 L 94 5 L 93 4 L 77 4 L 76 3 Z" fill="black" fill-rule="evenodd"/>
</svg>