<svg xmlns="http://www.w3.org/2000/svg" width="215" height="218" viewBox="0 0 215 218">
  <path d="M 15 106 L 14 107 L 11 107 L 9 109 L 8 109 L 7 110 L 7 111 L 5 113 L 5 115 L 4 116 L 4 119 L 3 120 L 3 152 L 4 153 L 4 192 L 5 193 L 5 197 L 6 198 L 6 199 L 7 200 L 7 201 L 9 203 L 9 204 L 10 205 L 11 205 L 12 206 L 12 207 L 13 207 L 15 209 L 16 209 L 17 210 L 18 210 L 19 211 L 21 211 L 22 212 L 25 212 L 26 213 L 29 213 L 30 214 L 65 214 L 66 213 L 78 213 L 79 212 L 88 212 L 89 211 L 100 211 L 101 212 L 116 212 L 117 211 L 118 211 L 119 210 L 121 210 L 123 208 L 123 207 L 125 205 L 125 204 L 126 203 L 126 201 L 127 200 L 127 195 L 126 194 L 126 192 L 125 191 L 125 190 L 120 185 L 119 185 L 118 184 L 116 184 L 115 183 L 105 183 L 104 182 L 89 182 L 88 183 L 82 183 L 81 184 L 72 184 L 71 185 L 58 185 L 57 186 L 33 186 L 32 185 L 32 182 L 31 181 L 32 180 L 31 179 L 31 157 L 30 156 L 30 139 L 29 138 L 29 123 L 30 122 L 30 117 L 29 116 L 29 113 L 24 108 L 23 108 L 22 107 L 21 107 L 20 106 Z M 99 101 L 98 102 L 95 102 L 94 103 L 93 103 L 88 108 L 88 109 L 87 110 L 87 119 L 88 120 L 88 121 L 93 126 L 94 126 L 95 127 L 104 127 L 105 126 L 106 126 L 111 121 L 111 120 L 112 119 L 112 116 L 113 115 L 112 114 L 112 110 L 111 109 L 111 108 L 109 106 L 109 105 L 108 105 L 106 103 L 105 103 L 104 102 L 100 102 Z M 105 53 L 104 54 L 99 54 L 98 55 L 95 55 L 94 56 L 92 56 L 91 57 L 89 57 L 88 58 L 87 58 L 86 59 L 84 59 L 83 60 L 82 60 L 81 61 L 79 61 L 78 62 L 77 62 L 76 63 L 75 63 L 74 64 L 73 64 L 70 67 L 69 67 L 69 68 L 63 74 L 63 75 L 61 77 L 61 78 L 59 80 L 59 81 L 58 82 L 58 83 L 57 84 L 57 85 L 55 87 L 55 88 L 54 89 L 54 90 L 53 91 L 53 93 L 52 94 L 52 95 L 51 96 L 51 98 L 50 99 L 50 101 L 49 102 L 49 104 L 48 105 L 48 108 L 47 109 L 47 114 L 46 115 L 46 133 L 47 134 L 47 137 L 48 138 L 48 141 L 49 142 L 49 143 L 50 144 L 50 146 L 51 147 L 51 148 L 53 150 L 53 151 L 55 153 L 55 154 L 65 164 L 66 164 L 69 167 L 70 167 L 71 168 L 72 168 L 73 169 L 74 169 L 75 170 L 76 170 L 77 171 L 79 171 L 80 172 L 82 172 L 83 173 L 86 173 L 87 174 L 108 174 L 109 173 L 113 173 L 114 172 L 117 172 L 118 171 L 121 171 L 122 170 L 123 170 L 124 169 L 126 169 L 127 168 L 128 168 L 129 167 L 130 167 L 132 165 L 133 165 L 134 164 L 135 164 L 139 160 L 140 160 L 142 158 L 142 157 L 143 156 L 144 156 L 144 155 L 146 153 L 146 152 L 149 149 L 149 148 L 150 147 L 150 146 L 151 145 L 151 144 L 152 143 L 152 142 L 153 141 L 153 140 L 154 139 L 154 138 L 155 137 L 155 136 L 156 135 L 156 133 L 157 132 L 157 130 L 158 129 L 158 126 L 159 125 L 159 122 L 160 121 L 160 118 L 161 117 L 161 101 L 160 100 L 160 96 L 159 95 L 159 92 L 158 91 L 158 89 L 157 88 L 157 87 L 156 86 L 156 84 L 154 82 L 154 80 L 152 78 L 152 77 L 150 75 L 150 74 L 140 64 L 139 64 L 138 63 L 137 63 L 136 62 L 135 62 L 133 60 L 132 60 L 130 58 L 129 58 L 128 57 L 126 57 L 125 56 L 123 56 L 122 55 L 121 55 L 120 54 L 115 54 L 114 53 Z M 104 84 L 105 83 L 114 83 L 115 84 L 116 84 L 118 86 L 119 86 L 120 87 L 121 87 L 127 93 L 127 94 L 129 96 L 129 98 L 130 99 L 130 100 L 131 101 L 131 104 L 132 105 L 132 112 L 131 113 L 131 117 L 130 118 L 130 120 L 129 121 L 129 122 L 128 123 L 128 125 L 127 126 L 127 128 L 125 130 L 125 132 L 123 134 L 123 135 L 117 141 L 116 141 L 115 142 L 114 142 L 113 143 L 111 143 L 110 144 L 108 144 L 107 145 L 104 145 L 103 146 L 92 146 L 91 145 L 88 145 L 87 144 L 86 144 L 85 143 L 84 143 L 82 141 L 81 141 L 80 140 L 80 139 L 79 139 L 77 137 L 77 136 L 75 134 L 75 133 L 74 132 L 74 130 L 73 129 L 73 117 L 74 116 L 74 112 L 75 111 L 75 109 L 76 108 L 76 106 L 77 105 L 77 103 L 78 102 L 78 101 L 79 100 L 79 99 L 80 98 L 80 97 L 81 96 L 81 95 L 83 93 L 83 92 L 84 91 L 85 91 L 86 90 L 88 90 L 89 89 L 90 89 L 91 88 L 92 88 L 93 87 L 95 87 L 96 86 L 97 86 L 98 85 L 100 85 L 101 84 Z M 148 3 L 147 4 L 141 4 L 140 5 L 135 5 L 134 6 L 125 6 L 124 7 L 111 7 L 110 6 L 103 6 L 102 7 L 101 7 L 100 8 L 99 8 L 96 11 L 96 12 L 95 13 L 95 15 L 94 16 L 94 22 L 95 23 L 95 25 L 96 26 L 96 27 L 97 28 L 98 28 L 101 31 L 103 31 L 104 32 L 106 32 L 107 33 L 131 33 L 132 32 L 140 32 L 141 31 L 149 31 L 150 30 L 161 30 L 162 31 L 174 31 L 175 32 L 177 32 L 178 33 L 178 34 L 177 35 L 177 45 L 178 46 L 178 61 L 179 62 L 179 77 L 180 78 L 180 86 L 181 87 L 181 93 L 182 94 L 182 111 L 183 112 L 183 114 L 189 120 L 190 120 L 191 121 L 193 121 L 194 122 L 199 122 L 200 121 L 202 121 L 204 119 L 205 119 L 209 115 L 209 114 L 210 113 L 210 111 L 211 110 L 211 92 L 210 91 L 210 85 L 209 84 L 209 78 L 208 77 L 208 67 L 207 66 L 207 55 L 206 54 L 206 28 L 205 27 L 205 21 L 204 20 L 204 18 L 203 17 L 203 16 L 201 14 L 201 13 L 197 9 L 196 9 L 195 8 L 194 8 L 193 7 L 191 7 L 190 6 L 188 6 L 187 5 L 181 5 L 180 4 L 166 4 L 165 3 Z" fill="black" fill-rule="evenodd"/>
</svg>